<svg xmlns="http://www.w3.org/2000/svg" width="744" height="1052" id="svg2">
  <defs id="defs4"/>
  <g id="layer1">
  <style type="text/css">
    
	* {fill:#a5e7e8;}

  </style>
    <path d="M208.6 389.5L159.5 362.9 109.8 388.3 119.9 333.4 80.4 294 135.7 286.6 161 236.9 185.1 287.2 240.2 295.9 199.8 334.4 208.6 389.5z" id="path2162"/>
    <path d="M377.1 418.1L354.5 367.9 300.3 358.1 341 321.1 333.6 266.5 381.4 293.8 431 269.9 419.8 323.8 457.9 363.5 403.2 369.6 377.1 418.1z" id="path2164"/>
    <path d="M171.4 603.8L143.4 602.8 126.7 625.3 119 598.4 92.5 589.4 115.7 573.8 116 545.8 138.1 563 164.8 554.6 155.2 581 171.4 603.8z" id="path2166"/>
    <path d="M397.1 660.9L344.8 606.4 270.2 618.5 305.9 551.9 271.3 484.7 345.7 498.1 398.9 444.4 409.2 519.3 476.7 553.3 408.6 586.2 397.1 660.9z" id="path2168"/>
    <path d="M562.9 506.6L525.6 491.2 491.7 513.1 494.9 472.9 463.6 447.5 502.9 438.1 517.4 400.4 538.4 434.8 578.7 437 552.5 467.7 562.9 506.6z" id="path2170"/>
    <path d="M605.7 132.4L570.9 134.7 553.1 164.7 540.1 132.4 506.1 124.7 532.9 102.4 529.6 67.6 559.1 86.2 591.2 72.3 582.7 106.2 605.7 132.4z" id="path2172"/>
    <path d="M74.3 118.1L73.6 86.7 47.3 69.4 77 59.1 85.3 28.8 104.3 53.8 135.7 52.3 117.8 78.1 128.9 107.5 98.8 98.4 74.3 118.1z" id="path2174"/>
    <path d="M277.1 178.1L236.6 138.8 181.3 150 206.1 99.3 178.4 50.1 234.3 58.1 272.5 16.6 282.2 72.1 333.5 95.6 283.6 122 277.1 178.1z" id="path2176"/>
    <path d="M500 235.2L485.7 219 464.2 221.7 475.2 203 466 183.4 487.1 188.1 503 173.3 505 194.9 524 205.4 504.1 214 500 235.2z" id="path2178"/>
    <path d="M551.4 349.5L550 299.4 507.9 272.2 555.1 255.4 568 207 598.6 246.6 648.6 243.9 620.3 285.3 638.4 332 590.3 317.9 551.4 349.5z" id="path2180"/>
    <path d="M177.1 818.1L113.6 800.8 63.3 843.3 60.1 777.5 4.1 742.9 65.7 719.5 81.4 655.5 122.6 706.9 188.3 702 152.2 757.1 177.1 818.1z" id="path2182"/>
    <path d="M117.1 463.8L124.9 449.4 117.4 434.9 133.4 437.8 144.9 426.2 147.1 442.4 161.7 449.7 147 456.8 144.5 472.9 133.3 461.2 117.1 463.8z" id="path2184"/>
    <path d="M317.1 766.6L283.3 749.5 250 767.7 255.8 730.2 228.2 704.1 265.7 698.1 282 663.8 299.3 697.6 336.9 702.5 310.2 729.3 317.1 766.6z" id="path2186"/>
    <path d="M637.1 820.9L569.4 799.4 513.2 843 512.8 771.9 453.9 731.9 521.4 709.5 541.3 641.2 583.4 698.5 654.5 696.2 613 754 637.1 820.9z" id="path2188"/>
    <path d="M608.6 526.6L616.3 499.5 598.4 477.8 626.6 476.8 641.8 453 651.4 479.5 678.7 486.6 656.5 503.9 658.2 532.1 634.8 516.3 608.6 526.6z" id="path2190"/>
    <path d="M640 626.6L621.4 623.2 607.9 636.5 605.5 617.7 588.6 609.1 605.7 600.9 608.7 582.2 621.8 596 640.5 593.1 631.4 609.7 640 626.6z" id="path2192"/>
    <path d="M288.6 849.5L314.2 824.2 307.8 788.7 339.8 805.3 371.5 788.3 365.7 823.8 391.7 848.7 356.1 854.2 340.4 886.6 324.2 854.4 288.6 849.5z" id="path2194"/>
    <path d="M448.6 829.5L434.2 826 423.1 835.9 422 821.2 409.2 813.7 422.9 808.1 426 793.6 435.6 804.9 450.3 803.3 442.6 816 448.6 829.5z" id="path2196"/>
    <path d="M360 186.6L349 173 331.6 174.3 341.2 159.7 334.5 143.5 351.4 148.1 364.8 136.8 365.6 154.2 380.5 163.4 364.2 169.7 360 186.6z" id="path2198"/>
    <path d="M71.4 178.1L59.6 171.2 47.2 177.1 50.1 163.7 40.7 153.8 54.3 152.4 60.8 140.3 66.4 152.9 79.8 155.4 69.7 164.5 71.4 178.1z" id="path2200"/>
    <path d="M51.4 469.5L35.4 458.4 17.1 465.3 22.7 446.6 10.5 431.4 30 430.9 40.7 414.6 47.2 433 66 438.2 50.5 450 51.4 469.5z" id="path2204"/>
    <path d="M582.9 963.8L538 945.7 497.7 972.5 501 924.2 463.1 894.1 510 882.4 526.9 837 552.6 878 600.9 880.1 569.9 917.2 582.9 963.8z" id="path2206"/>
    <path d="M645.7 909.5L640.7 895.1 626 891 638.1 881.8 637.4 866.5 650 875.2 664.3 869.8 659.9 884.5 669.4 896.4 654.1 896.7 645.7 909.5z" id="path2208"/>
    <path d="M697.1 392.4L681.1 381.2 662.8 388.2 668.4 369.5 656.2 354.2 675.7 353.8 686.4 337.4 692.9 355.9 711.7 361 696.2 372.9 697.1 392.4z" id="path2210"/>
    <path d="M654.3 100.9L642.5 89.8 626.6 93.3 633.5 78.6 625.3 64.6 641.4 66.6 652.2 54.5 655.3 70.5 670.1 77 655.9 84.8 654.3 100.9z" id="path2212"/>
    <path d="M705.7 189.5L687.9 179.2 669.4 188 673.7 168 659.6 153.1 680 150.9 689.8 132.9 698.2 151.7 718.3 155.4 703.1 169.2 705.7 189.5z" id="path2214"/>
    <path d="M705.7 812.4L686.3 794.4 660.5 800.3 671.6 776.3 658 753.6 684.3 756.6 701.7 736.8 706.9 762.7 731.2 773.1 708.1 786 705.7 812.4z" id="path2216"/>
    <path d="M120 958.1L98.9 945.2 76.3 955.4 82 931.3 65.3 913 90 910.9 102.3 889.5 111.9 912.3 136.1 917.3 117.3 933.5 120 958.1z" id="path2218"/>
    <path d="M245.7 960.9L201.7 931.9 152.9 951.6 166.9 900.8 133 860.4 185.7 858.1 213.7 813.4 232.1 862.7 283.3 875.5 242 908.3 245.7 960.9z" id="path2220"/>
    <path d="M405.7 995.2L382.9 974.7 353.1 981.9 365.5 953.9 349.5 927.8 380 930.9 399.9 907.6 406.3 937.6 434.6 949.3 408.1 964.7 405.7 995.2z" id="path2222"/>
    <path d="M117.1 1023.8L98.5 1016.1 81.6 1027 83.2 1006.9 67.5 994.2 87.1 989.5 94.4 970.7 104.9 987.9 125.1 989 112 1004.3 117.1 1023.8z" id="path2224"/>
    <path d="M214.3 1049.5L199.1 1031.6 175.8 1034 188.1 1014 178.6 992.5 201.4 998.1 218.9 982.4 220.7 1005.8 241 1017.7 219.3 1026.6 214.3 1049.5z" id="path2226"/>
    <path d="M680 1018.1L650.4 1001 619.5 1015.6 626.6 982.2 603.1 957.3 637.1 953.8 653.5 923.8 667.4 955 701 961.3 675.6 984.2 680 1018.1z" id="path2228"/>
    <path d="M471.4 1020.9L457.9 1014.9 445.3 1022.7 446.8 1007.9 435.5 998.3 450 995.2 455.7 981.5 463.1 994.3 477.9 995.5 468 1006.5 471.4 1020.9z" id="path2230"/>
    <path d="M351.4 52.4L367.6 38 365 16.5 383.6 27.5 403.2 18.4 398.6 39.5 413.3 55.3 391.8 57.4 381.3 76.3 372.7 56.5 351.4 52.4z" id="path2232"/>
  </g>
</svg>
